<?xml version="1.0" encoding="utf-8"?>
<!-- Generator: Adobe Illustrator 24.1.0, SVG Export Plug-In . SVG Version: 6.00 Build 0)  -->
<svg version="1.1" id="Layer_1" xmlns="http://www.w3.org/2000/svg" xmlns:xlink="http://www.w3.org/1999/xlink" x="0px" y="0px"
	 viewBox="0 0 1080 305" style="enable-background:new 0 0 1080 305;" xml:space="preserve">
<style type="text/css">
	.st0{fill:#6500C3;}
</style>
<path class="st0" d="M741.7,146.6c-17-20.4-41.9-32.1-68.5-32.1c-20.7,0-40.9,7.3-56.8,20.5c-37.7,31.3-42.9,87.4-11.7,125.1
	l0.1,0.2l0.2,0.2c15.2,18.1,36.5,29.3,60.1,31.5c2.7,0.2,5.5,0.4,8.2,0.4c20.7,0,40.9-7.3,56.8-20.5c7.5-6.2,8.5-17.3,2.3-24.8
	c-3.3-4-8.3-6.3-13.5-6.3c-4.1,0-8.1,1.4-11.2,4.1c-9.6,8-21.8,12.4-34.3,12.4c-10,0-19.5-2.7-28-7.8l94-78.1
	c3.6-3,5.8-7.2,6.3-11.9C746.1,154.8,744.7,150.2,741.7,146.6z M701.2,157.4l-78.2,65c-8-21.3-1.7-45.7,16-60.4
	c9.6-8,21.8-12.4,34.3-12.4C683.2,149.7,692.8,152.3,701.2,157.4z"/>
<g>
	<path class="st0" d="M1045.3,169.4c14.1,0,25.6-11.2,25.6-24.9c0-14.1-11.5-25.6-25.6-25.6c-13.7,0-24.9,11.5-24.9,25.6
		C1020.4,158.2,1031.5,169.4,1045.3,169.4z"/>
	<path class="st0" d="M1069.8,240.1c-2.3-8.2-8.9-17.9-26.7-17.9c-13.7,0-24.9,11.2-24.9,24.9c0,12.8,9.7,23.5,22.3,24.8v30.5
		l3.9-2.4C1064.7,287.1,1074.7,257.3,1069.8,240.1z"/>
</g>
<path class="st0" d="M782.5,291c-3.3,0-6.2-1.2-8.6-3.6c-2.4-2.4-3.6-5.3-3.6-8.6s1.2-6.2,3.6-8.6s5.3-3.6,8.6-3.6h27.7
	c0.8,0,1.4-0.6,1.4-1.4V146.1c0-0.8-0.6-1.4-1.4-1.4h-27.7c-3.3,0-6.2-1.2-8.6-3.6c-2.4-2.4-3.6-5.3-3.6-8.6c0-3.3,1.2-6.2,3.6-8.6
	s5.3-3.6,8.6-3.6h43c3.8,0,7,1.4,9.8,4.1c2.7,2.7,4.1,6,4.1,9.8v131.1c0,0.8,0.6,1.4,1.4,1.4h28.1c3.3,0,6.2,1.2,8.6,3.6
	c2.4,2.4,3.6,5.3,3.6,8.6c0,3.3-1.2,6.2-3.6,8.6s-5.3,3.6-8.6,3.6L782.5,291L782.5,291z M825.8,86.5c-5.6,0-10.4-2-14.3-5.8
	c-3.9-3.9-5.8-8.7-5.8-14.3c0-5.4,2-10.1,5.9-14.1c3.9-4,8.7-6,14.3-6c5.4,0,10.1,2,14.1,6c4,4,6,8.8,6,14.1c0,5.6-2,10.4-6,14.3
	C835.9,84.5,831.2,86.5,825.8,86.5z"/>
<path class="st0" d="M981,291c-21.5,0-39.3-6.4-53-19c-13.6-12.6-20.5-31.3-20.5-55.5v-71.8c0-0.8-0.6-1.4-1.4-1.4H887
	c-3.5,0-6.5-1.1-8.8-3.3c-2.3-2.2-3.4-4.9-3.4-8.2c0-3.3,1.1-6.1,3.4-8.2c2.3-2.2,5.2-3.3,8.8-3.3h19.1c0.8,0,1.4-0.6,1.4-1.4V89.2
	c0-3.8,1.3-7,4.1-9.8c2.7-2.7,6-4.1,9.8-4.1c4,0,7.4,1.4,10.1,4.1s4.1,6,4.1,9.8V119c0,0.8,0.6,1.4,1.4,1.4h36
	c3.3,0,6.2,1.1,8.6,3.3c2.3,2.2,3.5,4.9,3.5,8.2c0,3.3-1.2,6-3.5,8.2s-5.3,3.3-8.6,3.3h-36c-0.8,0-1.4,0.6-1.4,1.4v64.8
	c0,17.8,3.5,31.3,10.5,40.2c7,8.9,18.7,14.6,34.7,17c3.6,0.4,6.6,1.8,8.9,4.1c2.3,2.3,3.4,4.9,3.4,8c0,3.3-1.2,6.2-3.4,8.6
	C987.4,289.9,984.5,291,981,291z"/>
<path class="st0" d="M541.5,2.1c-9.7,0-17.6,7.9-17.6,17.6v112c-15.5-11.8-34.4-18.2-53.8-18.2c-49,0-89,39.9-89,89s39.9,89,89,89
	c19.5,0,38.4-6.4,53.8-18.2v0.6c0,9.7,7.9,17.6,17.6,17.6s17.6-7.9,17.6-17.6V19.7C559,10,551.2,2.1,541.5,2.1z M523.9,202.5
	c0,29.7-24.1,53.8-53.8,53.8s-53.8-24.1-53.8-53.8s24.1-53.8,53.8-53.8S523.9,172.8,523.9,202.5z"/>
<path class="st0" d="M150.5,235.4c-4.7,0-9.1,1.8-12.4,5.1c-10.2,10.1-23.7,15.7-38.1,15.7c-14.3,0-27.7-5.5-37.8-15.5l-0.3-0.3
	c-10.2-10.1-15.7-23.7-15.7-38.1s5.6-27.9,15.7-38.1c10.2-10.1,23.7-15.7,38.1-15.7s27.9,5.6,38.1,15.7c3.3,3.3,7.7,5.1,12.4,5.1
	s9.1-1.8,12.4-5.1c3.3-3.3,5.1-7.7,5.1-12.4c0-4.7-1.8-9.1-5.1-12.4c-16.8-16.8-39.1-26-62.9-26s-46.1,9.2-62.9,26
	C2.5,174.2,2.5,230.5,37,265.2l0,0l0.2,0.2c0,0,0,0,0,0l0,0l0,0c16.8,16.7,39.1,26,62.8,26c23.8,0,46.1-9.2,62.9-26
	c3.3-3.3,5.1-7.7,5.1-12.4c0-4.7-1.8-9.1-5.1-12.4C159.6,237.2,155.2,235.4,150.5,235.4z"/>
<path class="st0" d="M274.6,113.5c-49.1,0-89,39.9-89,89s39.9,89,89,89s89-39.9,89-89S323.7,113.5,274.6,113.5z M274.6,256.3
	c-29.7,0-53.8-24.1-53.8-53.8s24.1-53.8,53.8-53.8s53.8,24.1,53.8,53.8C328.5,232.2,304.3,256.3,274.6,256.3z"/>
</svg>
